<svg width="40" height="40" viewBox="0 0 40 40" fill="none" xmlns="http://www.w3.org/2000/svg">
<rect width="40" height="40" rx="20" fill="#191717"/>
<path fill-rule="evenodd" clip-rule="evenodd" d="M19.9954 7C16.7458 7.00169 13.6027 8.15263 11.1282 10.247C8.65374 12.3414 7.00918 15.2427 6.48861 18.4321C5.96804 21.6215 6.6054 24.8911 8.28673 27.6561C9.96807 30.4211 12.5837 32.5013 15.666 33.5248C16.346 33.651 16.6022 33.2295 16.6022 32.8712C16.6022 32.5128 16.5886 31.4738 16.584 30.3379C12.776 31.1606 11.9713 28.731 11.9713 28.731C11.3503 27.1533 10.4527 26.7386 10.4527 26.7386C9.21052 25.8957 10.5456 25.9115 10.5456 25.9115C11.9215 26.0084 12.6445 27.3156 12.6445 27.3156C13.864 29.3958 15.8473 28.7941 16.6271 28.4425C16.7495 27.5613 17.1054 26.9618 17.4975 26.6214C14.4556 26.2789 11.2596 25.1114 11.2596 19.8961C11.2407 18.5436 11.7455 17.2356 12.6695 16.2428C12.5289 15.9002 12.0597 14.5164 12.8032 12.6367C12.8032 12.6367 13.9524 12.2716 16.5682 14.0318C18.8118 13.4217 21.179 13.4217 23.4226 14.0318C26.0361 12.2716 27.183 12.6367 27.183 12.6367C27.9287 14.5119 27.4595 15.8957 27.319 16.2428C28.2459 17.2358 28.7517 18.546 28.7311 19.9007C28.7311 25.1272 25.5283 26.2789 22.4819 26.6147C22.9715 27.0384 23.409 27.8655 23.409 29.1367C23.409 30.9577 23.3931 32.4227 23.3931 32.8712C23.3931 33.234 23.6402 33.6577 24.3338 33.5248C27.4164 32.5012 30.0324 30.4206 31.7137 27.6551C33.395 24.8896 34.032 21.6196 33.5108 18.4299C32.9897 15.2402 31.3443 12.3389 28.869 10.2449C26.3937 8.15081 23.2499 7.00062 19.9999 7H19.9954Z" fill="white"/>
<path d="M11.4905 26.5425C11.461 26.6102 11.3522 26.6304 11.2638 26.5831C11.1754 26.5358 11.1097 26.4479 11.1414 26.378C11.1731 26.3082 11.2797 26.2901 11.3681 26.3375C11.4565 26.3848 11.5245 26.4749 11.4905 26.5425Z" fill="white"/>
<path d="M12.0457 27.1578C11.9988 27.1813 11.9451 27.1879 11.8938 27.1764C11.8425 27.1649 11.7969 27.136 11.7647 27.0947C11.6763 27.0001 11.6581 26.8693 11.7261 26.8107C11.7941 26.7521 11.9165 26.7792 12.0049 26.8738C12.0933 26.9685 12.1137 27.0992 12.0457 27.1578Z" fill="white"/>
<path d="M12.5853 27.9399C12.5015 27.9985 12.3587 27.9399 12.2793 27.8227C12.2574 27.8017 12.2399 27.7764 12.228 27.7486C12.2161 27.7207 12.21 27.6907 12.21 27.6604C12.21 27.6301 12.2161 27.6001 12.228 27.5722C12.2399 27.5444 12.2574 27.5192 12.2793 27.4981C12.3632 27.4418 12.506 27.4981 12.5853 27.6131C12.6647 27.728 12.6669 27.8813 12.5853 27.9399Z" fill="white"/>
<path d="M13.3175 28.6972C13.2427 28.7806 13.0909 28.758 12.9662 28.6453C12.8415 28.5326 12.8121 28.3794 12.8869 28.2982C12.9617 28.2171 13.1135 28.2397 13.2427 28.3501C13.3719 28.4605 13.3969 28.616 13.3175 28.6972Z" fill="white"/>
<path d="M14.3443 29.1389C14.3103 29.2448 14.1561 29.2921 14.002 29.2471C13.8479 29.202 13.7459 29.0758 13.7753 28.9676C13.8048 28.8594 13.9612 28.8098 14.1176 28.8594C14.274 28.909 14.3737 29.0284 14.3443 29.1389Z" fill="white"/>
<path d="M15.464 29.2155C15.464 29.3259 15.3371 29.4206 15.1739 29.4228C15.0107 29.4251 14.877 29.3349 14.877 29.2245C14.877 29.1141 15.0039 29.0194 15.1671 29.0172C15.3303 29.0149 15.464 29.1028 15.464 29.2155Z" fill="white"/>
<path d="M16.5067 29.042C16.5271 29.1524 16.4138 29.2674 16.2506 29.2944C16.0874 29.3215 15.9446 29.2561 15.9242 29.1479C15.9038 29.0397 16.0216 28.9226 16.1803 28.8933C16.339 28.864 16.4863 28.9316 16.5067 29.042Z" fill="white"/>
</svg>
