<svg width="40" height="40" viewBox="0 0 40 40" fill="none" xmlns="http://www.w3.org/2000/svg">
<rect width="40" height="40" rx="20" fill="url(#paint0_linear_12_320)"/>
<path d="M7.86841 31.6358L9.5833 25.4085C8.52308 23.5807 7.9669 21.5107 7.97269 19.3945C7.97269 12.7636 13.3955 7.37241 20.0522 7.37241C23.285 7.37241 26.3208 8.62363 28.5977 10.8954C30.8804 13.1673 32.1376 16.1886 32.1318 19.4003C32.1318 26.0312 26.709 31.4225 20.0464 31.4225H20.0406C18.0187 31.4225 16.0315 30.915 14.2645 29.9579L7.86841 31.6358ZM14.5715 27.7841L14.9365 28.0032C16.4776 28.9142 18.2446 29.3928 20.0464 29.3986H20.0522C25.5851 29.3986 30.0924 24.9184 30.0924 19.4061C30.0924 16.7364 29.0496 14.2282 27.1551 12.3369C25.2606 10.4457 22.7346 9.40781 20.0522 9.40781C14.5194 9.40204 10.012 13.8822 10.012 19.3945C10.012 21.28 10.5392 23.1194 11.5473 24.7108L11.7848 25.0914L10.771 28.7759L14.5715 27.7841Z" fill="white"/>
<path d="M8.29126 31.2149L9.94821 25.2009C8.92276 23.4423 8.38396 21.4415 8.38396 19.4003C8.38975 13 13.6213 7.79333 20.0522 7.79333C23.1749 7.79333 26.1006 9.0042 28.3022 11.1953C30.5037 13.3864 31.7146 16.304 31.7146 19.4061C31.7146 25.8064 26.4772 31.0131 20.0522 31.0131H20.0464C18.0939 31.0131 16.1763 30.523 14.473 29.6004L8.29126 31.2149Z" fill="url(#paint1_linear_12_320)"/>
<path d="M7.86841 31.6358L9.5833 25.4085C8.52308 23.5807 7.9669 21.5107 7.97269 19.3945C7.97269 12.7636 13.3955 7.37241 20.0522 7.37241C23.285 7.37241 26.3208 8.62363 28.5977 10.8954C30.8804 13.1673 32.1376 16.1886 32.1318 19.4003C32.1318 26.0312 26.709 31.4225 20.0464 31.4225H20.0406C18.0187 31.4225 16.0315 30.915 14.2645 29.9579L7.86841 31.6358ZM14.5715 27.7841L14.9365 28.0032C16.4776 28.9142 18.2446 29.3928 20.0464 29.3986H20.0522C25.5851 29.3986 30.0924 24.9184 30.0924 19.4061C30.0924 16.7364 29.0496 14.2282 27.1551 12.3369C25.2606 10.4457 22.7346 9.40781 20.0522 9.40781C14.5194 9.40204 10.012 13.8822 10.012 19.3945C10.012 21.28 10.5392 23.1194 11.5473 24.7108L11.7848 25.0914L10.771 28.7759L14.5715 27.7841Z" fill="url(#paint2_linear_12_320)"/>
<path fill-rule="evenodd" clip-rule="evenodd" d="M17.0337 14.3666C16.8077 13.865 16.5702 13.8534 16.3558 13.8477C16.182 13.8419 15.9792 13.8419 15.7765 13.8419C15.5737 13.8419 15.2493 13.9168 14.9712 14.2167C14.6931 14.5165 13.9167 15.243 13.9167 16.7249C13.9167 18.201 15.0001 19.631 15.1508 19.8328C15.3014 20.0346 17.2422 23.1655 20.307 24.3706C22.8562 25.3739 23.3776 25.1721 23.928 25.1202C24.4784 25.0683 25.7124 24.3937 25.9673 23.6902C26.2164 22.9868 26.2164 22.3871 26.1411 22.2603C26.0658 22.1334 25.863 22.0585 25.5618 21.9085C25.2605 21.7586 23.7774 21.0321 23.4993 20.9283C23.2212 20.8303 23.0184 20.7784 22.8214 21.0782C22.6187 21.3781 22.0393 22.0527 21.8655 22.2545C21.6917 22.4563 21.5121 22.4794 21.2108 22.3295C20.9096 22.1795 19.9362 21.8624 18.7833 20.8361C17.8853 20.0404 17.277 19.0544 17.1032 18.7545C16.9294 18.4547 17.0858 18.2933 17.2364 18.1433C17.3697 18.0107 17.5377 17.7916 17.6883 17.6186C17.839 17.4456 17.8911 17.3188 17.9896 17.117C18.0881 16.9152 18.0418 16.7422 17.9664 16.5923C17.8911 16.4481 17.3002 14.9605 17.0337 14.3666Z" fill="white"/>
<defs>
<linearGradient id="paint0_linear_12_320" x1="19.999" y1="39.998" x2="19.999" y2="-0.0013995" gradientUnits="userSpaceOnUse">
<stop stop-color="#20B038"/>
<stop offset="1" stop-color="#60D66A"/>
</linearGradient>
<linearGradient id="paint1_linear_12_320" x1="20.0023" y1="31.2137" x2="20.0023" y2="7.79252" gradientUnits="userSpaceOnUse">
<stop stop-color="#20B038"/>
<stop offset="1" stop-color="#60D66A"/>
</linearGradient>
<linearGradient id="paint2_linear_12_320" x1="20.0025" y1="31.6335" x2="20.0025" y2="7.37241" gradientUnits="userSpaceOnUse">
<stop stop-color="#F9F9F9"/>
<stop offset="1" stop-color="white"/>
</linearGradient>
</defs>
</svg>
